<?xml version="1.0" encoding="UTF-8" standalone="no"?>
<!-- Generator: Adobe Illustrator 18.1.1, SVG Export Plug-In . SVG Version: 6.00 Build 0)  -->

<svg
   xmlns:dc="http://purl.org/dc/elements/1.1/"
   xmlns:cc="http://creativecommons.org/ns#"
   xmlns:rdf="http://www.w3.org/1999/02/22-rdf-syntax-ns#"
   xmlns:svg="http://www.w3.org/2000/svg"
   xmlns="http://www.w3.org/2000/svg"
   xmlns:sodipodi="http://sodipodi.sourceforge.net/DTD/sodipodi-0.dtd"
   xmlns:inkscape="http://www.inkscape.org/namespaces/inkscape"
   version="1.1"
   id="Capa_1"
   x="0px"
   y="0px"
   viewBox="0 0 404.16 404.16"
   style="enable-background:new 0 0 404.16 404.16;"
   xml:space="preserve"
   inkscape:version="0.47pre2 r22153"
   width="100%"
   height="100%"
   sodipodi:docname="item-3.svg"><metadata
   id="metadata43"><rdf:RDF><cc:Work
       rdf:about=""><dc:format>image/svg+xml</dc:format><dc:type
         rdf:resource="http://purl.org/dc/dcmitype/StillImage" /><dc:title></dc:title></cc:Work></rdf:RDF></metadata><defs
   id="defs41"><inkscape:perspective
     sodipodi:type="inkscape:persp3d"
     inkscape:vp_x="0 : 202.08 : 1"
     inkscape:vp_y="0 : 1000 : 0"
     inkscape:vp_z="404.16 : 202.08 : 1"
     inkscape:persp3d-origin="202.08 : 134.72 : 1"
     id="perspective45" /></defs><sodipodi:namedview
   pagecolor="#ffffff"
   bordercolor="#666666"
   borderopacity="1"
   objecttolerance="10"
   gridtolerance="10"
   guidetolerance="10"
   inkscape:pageopacity="0"
   inkscape:pageshadow="2"
   inkscape:window-width="679"
   inkscape:window-height="483"
   id="namedview39"
   showgrid="false"
   inkscape:zoom="0.58392716"
   inkscape:cx="202.08"
   inkscape:cy="160.23193"
   inkscape:window-x="969"
   inkscape:window-y="134"
   inkscape:window-maximized="0"
   inkscape:current-layer="Capa_1" />
<g
   id="g3"
   style="fill:#55acee;fill-opacity:1">
	<path
   style="fill:#55acee;fill-opacity:1"
   d="M234.514,374.811c0,4.495,3.642,8.129,8.129,8.129h122.595c4.487,0,8.129-3.633,8.129-8.129V214.394   c0-4.495-3.642-8.129-8.129-8.129s-8.129,3.633-8.129,8.129v152.289H250.771v-84.838c0-4.495-3.642-8.129-8.129-8.129h-79.758   c-4.487,0-8.129,3.633-8.129,8.129v86.667H47.053V203.445c0-4.495-3.642-8.129-8.129-8.129s-8.129,3.633-8.129,8.129V376.64   c0,4.495,3.642,8.129,8.129,8.129h123.961c4.487,0,8.129-3.633,8.129-8.129v-86.667h63.5V374.811z"
   id="path5" />
	<path
   style="fill:#55acee;fill-opacity:1"
   d="M401.15,178.904L206.487,21.21c-2.951-2.398-7.161-2.43-10.144-0.065L3.101,173.377   c-3.528,2.78-4.137,7.885-1.357,11.413c2.78,3.52,7.901,4.137,11.413,1.349L201.292,37.931l189.623,153.598   c1.504,1.211,3.316,1.813,5.113,1.813c2.365,0,4.715-1.032,6.316-3.008C405.173,186.846,404.637,181.725,401.15,178.904z"
   id="path7" />
</g>
<g
   id="g9">
</g>
<g
   id="g11">
</g>
<g
   id="g13">
</g>
<g
   id="g15">
</g>
<g
   id="g17">
</g>
<g
   id="g19">
</g>
<g
   id="g21">
</g>
<g
   id="g23">
</g>
<g
   id="g25">
</g>
<g
   id="g27">
</g>
<g
   id="g29">
</g>
<g
   id="g31">
</g>
<g
   id="g33">
</g>
<g
   id="g35">
</g>
<g
   id="g37">
</g>
</svg>